<svg xmlns="http://www.w3.org/2000/svg" viewBox="0 0 512 512" width="512" height="512">
  <!-- Background -->
  <rect width="512" height="512" fill="#0a0e15"/>
  
  <!-- Outer border -->
  <rect x="40" y="40" width="432" height="432" fill="none" stroke="#a4fc3c" stroke-width="16" rx="32"/>
  
  <!-- NN Letters -->
  <g fill="#a4fc3c">
    <!-- First N -->
    <rect x="120" y="160" width="32" height="192"/>
    <polygon points="152,160 152,352 184,352 184,160"/>
    <rect x="184" y="160" width="32" height="192"/>
    <polygon points="120,160 152,192 152,352 120,352"/>
    
    <!-- Second N -->
    <rect x="280" y="160" width="32" height="192"/>
    <polygon points="312,160 312,352 344,352 344,160"/>
    <rect x="344" y="160" width="32" height="192"/>
    <polygon points="280,160 312,192 312,352 280,352"/>
  </g>
  
  <!-- Corner accent marks -->
  <g stroke="#a4fc3c" stroke-width="6" stroke-linecap="square">
    <line x1="80" y1="80" x2="100" y2="80"/>
    <line x1="80" y1="80" x2="80" y2="100"/>
    
    <line x1="432" y1="80" x2="412" y2="80"/>
    <line x1="432" y1="80" x2="432" y2="100"/>
    
    <line x1="80" y1="432" x2="100" y2="432"/>
    <line x1="80" y1="432" x2="80" y2="412"/>
    
    <line x1="432" y1="432" x2="412" y2="432"/>
    <line x1="432" y1="432" x2="432" y2="412"/>
  </g>
</svg>